<svg xmlns="http://www.w3.org/2000/svg" version="1.1" xmlns:xlink="http://www.w3.org/1999/xlink" enable-background="new 0 0 500 500" xml:space="preserve" width="800" height="500" viewBox="0 0 800 500" data-app="Xyris">
    <defs>
    </defs>
    <rect fill="rgb(255, 255, 255)" stroke="#000000" stroke-width="0" x="-0.00038" y="0" width="800" height="500" transform="">
    </rect>
    <g id="Floor" transform="">
        <path id="Floor_17_" d="M 265.262 454.481 C 342.817 493.317 468.559 493.318 546.113 454.482 C 623.668 415.645 623.668 352.68 546.113 313.844 C 468.558 275.008 342.816 275.008 265.261 313.843 C 187.706 352.679 187.706 415.645 265.262 454.481 Z" fill="rgb(250, 250, 250)" transform="">
        </path>
    </g>
    <g id="Shadows" transform="">
        <path id="Shadow_39_" d="M 580.326 398.217 C 564.857 406.627 539.776 406.627 524.307 398.217 C 508.837 389.809 508.837 376.176 524.307 367.766 C 539.776 359.358 564.856 359.358 580.326 367.766 C 595.795 376.176 595.795 389.81 580.326 398.217 Z" fill="rgb(230, 230, 230)" transform="">
        </path>
        <path id="Shadow_40_" d="M 285.984 395.46 C 270.515 403.87 245.434 403.87 229.965 395.46 C 214.495 387.053 214.495 373.419 229.965 365.009 C 245.434 356.601 270.514 356.601 285.984 365.009 C 301.454 373.418 301.454 387.052 285.984 395.46 Z" fill="rgb(230, 230, 230)" transform="">
        </path>
    </g>
    <g id="Plants" transform="">
        <g id="Plants_17_" transform="">
            <g id="XMLID_3698_" transform="">
                <g id="XMLID_3701_" transform="">
                    <path id="XMLID_3703_" d="M 240.414 354.994 C 240.414 354.994 240.04 346.261 236.204 339.233 C 232.368 332.205 226.743 327.591 221.248 326.765 C 215.754 325.939 210.933 330.707 216.599 334.615 C 222.265 338.522 232.517 342.825 236.43 356.222 L 240.414 354.994 Z" fill="rgb(39, 222, 191)" transform="">
                    </path>
                    <path id="XMLID_3702_" opacity="0.15" d="M 240.414 354.994 C 240.414 354.994 240.04 346.261 236.204 339.233 C 232.368 332.205 226.743 327.591 221.248 326.765 C 215.754 325.939 210.933 330.707 216.599 334.615 C 222.265 338.522 232.517 342.825 236.43 356.222 L 240.414 354.994 Z" transform="">
                    </path>
                </g>
                <g id="XMLID_3699_" transform="">
                    <path id="XMLID_3700_" d="M 238.953 352.63 C 238.973 352.628 238.993 352.624 239.013 352.617 C 239.168 352.566 239.253 352.4 239.202 352.244 C 234.384 337.474 223.707 330.695 218.734 329.175 C 218.578 329.126 218.413 329.215 218.364 329.371 C 218.316 329.527 218.404 329.693 218.56 329.74 C 223.431 331.229 233.896 337.888 238.639 352.427 C 238.684 352.563 238.817 352.645 238.953 352.63 Z" fill="rgb(255, 255, 255)" transform="">
                    </path>
                </g>
            </g>
            <g id="XMLID_3681_" transform="">
                <g id="XMLID_3693_" transform="">
                    <g id="XMLID_3696_" transform="">
                        <path id="XMLID_3697_" d="M 209.282 350.706 C 209.729 351.942 210.994 352.659 212.178 353.236 C 213.355 353.808 214.645 354.432 215.223 355.612 C 216.387 357.995 213.984 361.061 215.25 363.391 C 215.782 364.368 216.857 364.939 217.936 365.212 C 218.831 365.446 219.755 365.51 220.67 365.652 C 221.113 365.674 221.554 365.673 221.985 365.642 C 223.26 365.548 224.634 365.585 225.745 366.313 C 227.493 367.464 227.89 369.802 228.87 371.651 C 230.046 373.866 232.291 375.42 234.729 375.929 C 235.539 376.095 237.05 376.349 237.916 375.943 C 237.984 375.912 238.04 375.882 238.096 375.845 C 238.096 375.845 238.107 375.838 238.112 375.831 C 238.235 375.71 238.391 375.556 238.459 375.471 C 238.476 375.457 238.485 375.438 238.495 375.419 C 238.901 374.254 238.462 372.981 238.527 371.754 C 238.53 371.676 238.534 371.604 238.544 371.532 C 238.695 370.11 238.835 368.695 238.969 367.275 C 239.22 364.663 239.434 362.043 239.601 359.422 C 239.703 357.72 240.039 355.872 239.432 354.219 C 238.759 352.4 236.78 352.222 236.153 350.44 C 235.901 349.73 235.794 348.98 235.553 348.262 C 234.83 346.157 232.834 344.54 230.62 344.274 C 227.173 343.854 223.87 346.437 220.433 345.938 C 219.543 345.805 218.69 345.471 217.82 345.247 C 215.054 344.525 211.759 345.094 210.016 347.355 C 209.288 348.3 208.877 349.584 209.282 350.706 Z" fill="rgb(39, 222, 191)" transform="">
                        </path>
                    </g>
                </g>
                <g id="XMLID_3691_" transform="">
                    <path id="XMLID_3692_" d="M 239.163 369.99 C 239.171 369.989 239.179 369.988 239.187 369.986 C 239.347 369.955 239.452 369.8 239.421 369.64 C 235.905 351.367 217.19 347.443 212.746 347.451 C 212.585 347.453 212.451 347.584 212.45 347.747 C 212.45 347.91 212.583 348.043 212.746 348.043 C 217.093 348.036 235.399 351.875 238.839 369.753 C 238.87 369.905 239.012 370.007 239.163 369.99 Z" fill="rgb(255, 255, 255)" transform="">
                    </path>
                </g>
                <g id="XMLID_3689_" transform="">
                    <path id="XMLID_3690_" d="M 218.807 359.421 C 218.865 359.414 218.922 359.391 218.969 359.349 C 219.02 359.304 224.174 354.893 232.085 356.633 C 232.245 356.666 232.403 356.567 232.438 356.408 C 232.473 356.248 232.372 356.09 232.213 356.055 C 223.997 354.249 218.633 358.858 218.58 358.904 C 218.457 359.012 218.445 359.199 218.553 359.322 C 218.618 359.398 218.714 359.432 218.807 359.421 Z" fill="rgb(255, 255, 255)" transform="">
                    </path>
                </g>
            </g>
        </g>
        <g id="Plants_16_" transform="">
            <g id="XMLID_3675_" transform="">
                <g id="XMLID_3678_" transform="">
                    <path id="XMLID_3680_" d="M 567.915 361.952 C 567.853 356.774 571.469 346.005 576.761 339.217 C 582.053 332.429 590.441 327.412 596.467 329.393 C 602.079 331.238 601.562 338.577 594.839 343.517 C 588.117 348.457 577.997 354.683 575.116 363.117 L 568.983 373.497 L 567.915 361.952 Z" fill="rgb(39, 222, 191)" transform="">
                    </path>
                    <path id="XMLID_3679_" opacity="0.1" d="M 567.915 361.952 C 567.853 356.774 571.469 346.005 576.761 339.217 C 582.053 332.429 590.441 327.412 596.467 329.393 C 602.079 331.238 601.562 338.577 594.839 343.517 C 588.117 348.457 577.997 354.683 575.116 363.117 L 568.983 373.497 L 567.915 361.952 Z" transform="">
                    </path>
                </g>
                <g id="XMLID_3676_" transform="">
                    <path id="XMLID_3677_" d="M 567.618 369.041 C 567.783 369.026 567.924 368.903 567.955 368.733 C 571.21 351.017 585.335 336.479 593.855 333.202 C 594.05 333.127 594.147 332.908 594.072 332.713 C 593.998 332.519 593.783 332.417 593.583 332.496 C 584.901 335.835 570.515 350.612 567.211 368.597 C 567.173 368.802 567.309 368.999 567.514 369.037 C 567.549 369.043 567.584 369.045 567.618 369.041 Z" fill="rgb(255, 255, 255)" transform="">
                    </path>
                </g>
            </g>
            <g id="XMLID_3670_" transform="">
                <g id="XMLID_3673_" transform="">
                    <path id="XMLID_3674_" d="M 570.39 380.323 C 571.187 377.403 574.684 372.557 580.386 368.52 C 586.694 364.055 594.719 361.94 596.534 358.502 C 598.714 354.372 595.208 350.536 588.684 351.425 C 582.16 352.314 570.78 361.366 569.105 374.81 L 570.39 380.323 Z" fill="rgb(39, 222, 191)" transform="">
                    </path>
                </g>
                <g id="XMLID_3671_" transform="">
                    <path id="XMLID_3672_" d="M 569.089 377.284 C 569.232 377.271 569.361 377.176 569.412 377.03 C 574.65 361.823 586.139 356.37 591.481 355.611 C 591.688 355.582 591.832 355.39 591.802 355.183 C 591.773 354.976 591.589 354.832 591.374 354.861 C 585.466 355.7 574.042 361.261 568.696 376.783 C 568.628 376.98 568.733 377.196 568.931 377.264 C 568.983 377.283 569.037 377.289 569.089 377.284 Z" fill="rgb(255, 255, 255)" transform="">
                    </path>
                </g>
            </g>
        </g>
    </g>
    <g id="Character_2" transform="">
        <g id="XMLID_3028_" transform="">
            <g id="Character_boy_3_" transform="">
                <g id="XMLID_3341_" transform="">
                    <g id="XMLID_3234_" transform="">
                        <path id="XMLID_3300_" d="M 502.614 238.103 C 503.812 239.093 505.181 239.6 506.756 241.129 C 508.144 242.475 508.74 243.006 510.414 243.67 C 512.229 244.39 513.939 244.177 518.977 243.371 C 525.14 242.386 527.792 241.349 530.45 239.082 C 533.559 236.43 540.512 228.432 543.874 225.291 C 547.428 221.969 552.316 223.253 552.316 223.253 C 552.316 223.253 550.302 230.459 545.647 237.086 C 542.954 240.919 537.925 244.587 535.65 246.48 C 532.01 249.509 530.075 250.706 522.078 251.308 C 516.043 251.762 515.241 251.91 510.304 251.763 C 508.519 251.71 507.405 251.692 504.484 251.449 C 503.036 251.328 501.858 251.146 500.731 250.795 C 499.299 250.348 498.059 250.08 496.811 249.244 C 495.239 248.19 493.891 246.765 493.083 245.054 C 492.638 244.113 492.358 243.079 492.388 242.039 C 492.418 240.998 492.774 239.951 493.475 239.181 C 493.617 239.025 493.78 238.876 493.98 238.811 C 494.342 238.693 494.728 238.871 495.067 239.044 C 496.963 240.015 498.863 241.346 500.842 242.109 C 502.515 242.754 503.785 242.977 503.661 242.641 C 503.537 242.304 502.528 241.994 501.49 240.824 C 500.499 239.707 500.192 238.02 500.862 237.513 C 501.534 237.004 501.416 237.113 502.614 238.103 Z" fill="rgb(255, 168, 167)" transform="">
                        </path>
                    </g>
                    <path id="XMLID_3217_" d="M 553.75 223.225 C 553.75 223.225 550.744 221.667 547.634 222.561 C 544.524 223.455 542.032 225.489 539.065 228.672 C 536.098 231.856 531.093 237.005 531.093 237.005 C 531.093 237.005 533.557 243.244 539.096 245.461 L 550.708 234.718 L 553.75 223.225 Z" fill="rgb(39, 222, 191)" transform="">
                    </path>
                    <path id="XMLID_3218_" opacity="0.1" d="M 553.75 223.225 C 553.75 223.225 550.744 221.667 547.634 222.561 C 544.524 223.455 542.032 225.489 539.065 228.672 C 536.098 231.856 531.093 237.005 531.093 237.005 C 531.093 237.005 533.557 243.244 539.096 245.461 L 550.708 234.718 L 553.75 223.225 Z" transform="">
                    </path>
                    <g id="XMLID_3344_" transform="">
                        <g id="XMLID_3379_" transform="">
                            <path id="XMLID_3457_" d="M 499.078 238.71 L 510.081 232.302 C 511.024 231.753 512.557 231.747 513.504 232.289 L 524.006 237.719 C 524.953 238.261 525.725 239.586 525.729 240.677 L 525.777 253.41 C 525.781 254.502 525.02 255.832 524.077 256.381 L 513.074 262.789 C 512.131 263.338 510.598 263.344 509.651 262.802 L 499.149 257.371 C 498.202 256.829 497.43 255.504 497.426 254.413 L 497.378 241.68 C 497.373 240.589 498.135 239.259 499.078 238.71 Z" fill="rgb(55, 71, 79)" transform="">
                            </path>
                        </g>
                        <g id="XMLID_3348_" transform="">
                            <path id="XMLID_3374_" opacity="0.4" d="M 525.728 240.389 C 525.602 239.513 524.891 239.197 524.039 239.697 L 513.033 246.105 C 512.442 246.448 511.925 247.098 511.621 247.802 C 511.682 247.662 511.748 247.522 511.826 247.388 L 497.896 239.994 C 498.201 239.457 498.629 238.986 499.103 238.711 L 510.103 232.303 C 511.05 231.752 512.581 231.746 513.526 232.29 L 524.031 237.72 C 524.893 238.214 525.613 239.361 525.728 240.389 Z" fill="rgb(69, 90, 100)" transform="">
                            </path>
                        </g>
                        <path id="XMLID_3347_" d="M 497.425 254.413 C 497.429 255.505 498.201 256.829 499.148 257.371 L 509.65 262.802 C 510.506 263.292 511.836 263.33 512.781 262.928 C 511.976 263.236 511.362 262.783 511.358 261.807 L 511.31 249.074 C 511.308 248.528 511.497 247.923 511.805 247.385 L 497.872 239.991 C 497.564 240.529 497.375 241.134 497.377 241.68 L 497.425 254.413 Z" fill="rgb(38, 50, 56)" transform="">
                        </path>
                        <g id="XMLID_3345_" transform="">
                        </g>
                    </g>
                </g>
                <g id="Character_boy_4_" transform="">
                    <g id="XMLID_3235_" transform="">
                        <rect id="XMLID_3688_" x="563.769" y="365.792" width="7.04" height="12.051" fill="rgb(255, 168, 167)" transform="">
                        </rect>
                        <polygon id="XMLID_3687_" points="551.3294677734375,368.82745361328125 544.29345703125,369.0694274902344 543.9404296875,356.3154296875 551.3294677734375,356.0734558105469" fill="rgb(255, 168, 167)" transform="">
                        </polygon>
                        <path id="XMLID_3686_" d="M 573.807 275.804 C 573.807 282.526 572.619 321.628 572.619 321.628 C 572.783 323.563 574.645 327.002 574.79 333.969 C 575 344.073 571.11 371.817 571.11 371.817 C 571.11 371.817 567.693 373.814 563.272 371.972 C 563.272 371.972 560.079 334.364 558.817 324.362 C 557.716 315.633 555.848 291.921 555.848 291.921 L 552.533 320.417 C 552.533 320.417 553.831 325.623 553.405 331.605 C 553.076 336.231 551.773 364.876 551.773 364.876 C 551.773 364.876 548.459 367.124 543.645 365.498 C 543.645 365.498 538.68 324.661 538.599 320.417 C 538.506 315.578 540.439 266.18 540.439 266.18 L 573.807 275.804 Z" fill="rgb(55, 71, 79)" transform="">
                        </path>
                        <path id="XMLID_3685_" d="M 569.182 226.351 C 570.73 227.043 571.953 228.304 572.574 229.882 C 573.127 231.287 573.605 233.279 573.605 235.966 L 573.605 249.759 L 573.807 275.804 C 563.703 281.13 550.857 281.486 540.077 273.614 C 540.077 273.614 540.679 240.089 540.679 234.606 C 540.679 234.358 540.685 234.107 540.698 233.853 C 541.09 226.02 548.801 220.645 556.397 222.599 L 562.777 224.24 L 569.182 226.351 L 569.182 226.351 Z" fill="rgb(39, 222, 191)" transform="">
                        </path>
                        <g id="XMLID_3223_" transform="">
                            <path id="XMLID_3231_" d="M 520.194 252.224 C 521.518 253.038 522.944 253.349 524.717 254.644 C 526.279 255.784 526.943 256.227 528.693 256.651 C 530.591 257.111 545.514 252.069 548.282 249.936 C 553.9 245.607 558.76 237.447 561.465 234.351 C 563.693 231.801 566.221 227.963 568.965 227.946 C 573.504 229.32 572.476 236.07 568.678 242.15 C 565.539 247.175 559.571 253.527 552.815 257.958 C 549.541 260.105 534.464 263.997 529.454 264.325 C 527.93 264.425 526.804 264.766 523.901 265.178 C 522.73 265.344 521.452 265.563 520.287 265.371 C 518.807 265.128 517.348 264.717 515.996 264.062 C 514.293 263.237 512.759 262.014 511.721 260.432 C 511.149 259.562 510.728 258.578 510.613 257.543 C 510.497 256.508 510.704 255.421 511.291 254.561 C 511.41 254.387 511.55 254.217 511.74 254.125 C 512.083 253.958 512.489 254.08 512.849 254.205 C 514.862 254.903 516.928 255.956 518.995 256.436 C 520.741 256.841 522.031 256.886 521.861 256.57 C 521.691 256.254 520.649 256.087 519.459 255.073 C 518.322 254.105 517.783 252.477 518.377 251.882 C 518.971 251.286 518.87 251.411 520.194 252.224 Z" fill="rgb(255, 168, 167)" transform="">
                            </path>
                        </g>
                        <g id="XMLID_3243_" transform="">
                            <g id="XMLID_3269_" transform="">
                                <circle id="XMLID_3684_" cx="551.106" cy="200.695" r="9.675" fill="rgb(38, 50, 56)" transform="">
                                </circle>
                                <path id="XMLID_3683_" d="M 567.83 207.574 C 567.83 207.574 566.262 214.94 565.634 216.15 C 565.005 217.36 563.706 217.704 563.706 217.704 L 563.816 212.523 L 567.83 207.574 Z" fill="rgb(38, 50, 56)" transform="">
                                </path>
                                <path id="XMLID_3682_" d="M 565.863 197.023 C 565.863 197.023 567.552 196.734 568.868 198.079 C 570.158 199.399 569.438 203.529 567.831 207.574 L 564.878 207.913 L 565.863 197.023 Z" fill="rgb(38, 50, 56)" transform="">
                                </path>
                                <path id="XMLID_3278_" d="M 563.991 207.916 C 564.583 208.27 565.428 207.132 566.158 206.368 C 566.888 205.604 569.272 204.56 570.461 207.066 C 571.673 209.62 569.411 212.994 567.535 213.583 C 564.301 214.598 563.815 212.524 563.815 212.524 L 563.576 224.548 L 563.576 224.548 C 559.554 229.704 548.395 229.268 553.045 223.883 L 553.054 220.332 C 553.054 220.332 550.123 220.777 548.694 220.556 C 546.315 220.188 544.819 218.311 544.097 215.737 C 542.938 211.601 542.498 208.262 543.481 200.129 C 544.559 191.215 554.927 191.122 560.526 194.646 C 566.127 198.168 563.991 207.916 563.991 207.916 Z" fill="rgb(255, 168, 167)" transform="">
                                </path>
                                <path id="XMLID_3275_" d="M 563.991 208.912 C 564.289 208.918 565.421 207.039 566.158 206.368 C 567.179 205.439 565.862 197.023 565.862 197.023 C 565.862 197.023 566.843 194.931 564.876 192.766 C 563.477 191.226 561.138 191.055 557.146 190.428 C 555.051 190.099 551.876 189.512 549.784 189.123 C 547.286 188.659 545.219 188.167 543.455 189.7 C 542.082 190.893 541.491 193.001 542.23 194.662 C 542.403 195.052 542.654 195.404 542.939 195.721 C 543.445 196.283 544.017 196.726 544.737 196.959 C 544.737 196.959 545.826 197.925 549.615 198.387 C 553.404 198.848 559.305 198.298 560.112 198.188 C 561.211 198.038 561.445 199.103 562.038 202.012 C 562.559 204.565 562.99 208.893 563.991 208.912 Z" fill="rgb(38, 50, 56)" transform="">
                                </path>
                                <path id="XMLID_3273_" d="M 565.857 197.677 L 569.437 195.755 C 568.929 194.729 567.715 194.328 566.727 194.859 C 565.738 195.389 565.349 196.651 565.857 197.677 Z" fill="rgb(38, 50, 56)" transform="">
                                </path>
                                <path id="XMLID_3270_" d="M 553.054 220.331 C 553.054 220.331 558.364 219.261 560.22 218.274 C 561.462 217.614 562.486 216.469 562.786 215.735 C 562.786 215.735 562.438 217.31 561.328 218.729 C 559.97 220.465 553.054 221.743 553.054 221.743 L 553.054 220.331 Z" fill="rgb(242, 143, 143)" transform="">
                                </path>
                            </g>
                            <g id="XMLID_3244_" transform="">
                                <path id="XMLID_3268_" d="M 553.314 206.588 C 553.314 207.199 553.791 207.692 554.378 207.691 C 554.966 207.69 555.442 207.193 555.442 206.583 C 555.442 205.972 554.966 205.479 554.378 205.48 C 553.791 205.482 553.314 205.978 553.314 206.588 Z" fill="rgb(38, 50, 56)" transform="">
                                </path>
                                <path id="XMLID_3266_" d="M 554.443 202.571 L 556.719 203.827 C 557.055 203.173 556.817 202.362 556.189 202.015 C 555.56 201.668 554.778 201.917 554.443 202.571 Z" fill="rgb(38, 50, 56)" transform="">
                                </path>
                                <path id="XMLID_3265_" d="M 553.535 213.939 L 551.106 214.85 C 551.346 215.546 552.085 215.907 552.756 215.655 C 553.427 215.403 553.776 214.635 553.535 213.939 Z" fill="rgb(242, 143, 143)" transform="">
                                </path>
                                <path id="XMLID_3264_" d="M 544.134 203.457 L 546.21 201.858 C 545.787 201.264 544.979 201.14 544.406 201.581 C 543.832 202.023 543.711 202.863 544.134 203.457 Z" fill="rgb(38, 50, 56)" transform="">
                                </path>
                                <path id="XMLID_3263_" d="M 544.773 206.285 C 544.773 206.896 545.249 207.389 545.837 207.387 C 546.425 207.385 546.901 206.889 546.901 206.279 C 546.901 205.669 546.425 205.175 545.837 205.176 C 545.25 205.178 544.773 205.675 544.773 206.285 Z" fill="rgb(38, 50, 56)" transform="">
                                </path>
                                <polygon id="XMLID_3245_" points="550.1944580078125,205.27645874023438 549.845458984375,211.6754608154297 546.5044555664062,210.5364532470703" fill="rgb(242, 143, 143)" transform="">
                                </polygon>
                            </g>
                        </g>
                        <path id="XMLID_3239_" d="M 563.769 374.369 L 563.769 373.362 C 563.095 373.655 561.53 379.626 558.737 382.174 C 556.517 384.199 553.487 386.539 552.717 388.797 C 551.916 391.145 556.935 392.442 559.01 392.074 C 561.42 391.647 565.598 389.95 566.647 388.376 C 567.696 386.803 568.187 384.481 569.039 383.328 C 569.891 382.175 571.856 380.888 572.316 379.553 C 572.569 378.82 572.269 377.214 571.913 375.857 C 571.587 374.612 571.233 373.244 570.808 373.361 C 570.807 373.513 570.808 374.128 570.808 374.128 C 570.297 374.694 568.883 375.257 567.288 375.318 C 566.259 375.359 563.761 375.154 563.769 374.369 Z" fill="rgb(38, 50, 56)" transform="">
                        </path>
                        <path id="XMLID_3237_" d="M 544.218 366.898 C 543.853 366.911 543.555 367.426 542.749 368.299 C 541.774 369.354 540.181 370.492 538.608 371.279 C 535.972 372.598 530.847 374.628 528.528 375.673 C 527.079 376.326 527.147 378.076 528.645 379.072 C 530.143 380.068 533.759 380.786 538.101 379.815 C 540.466 379.286 543.546 377.101 545.495 377.219 C 547.444 377.337 551.091 377.309 552.53 376.317 C 553.969 375.325 553.393 373.207 552.986 371.388 C 552.542 369.402 551.987 366.305 551.33 366.44 L 551.33 367.125 C 550.484 368.407 546.116 368.928 544.257 367.985 L 544.218 366.898 Z" fill="rgb(38, 50, 56)" transform="">
                        </path>
                        <path id="XMLID_3236_" d="M 555.848 291.922 C 555.848 291.922 550.221 290.337 546.045 286.301 C 546.045 286.301 547.937 289.843 553.562 293.138 L 552.812 318.022 L 555.848 291.922 Z" fill="rgb(38, 50, 56)" transform="">
                        </path>
                    </g>
                    <g id="XMLID_3219_" transform="">
                        <g id="XMLID_3309_" transform="">
                            <path id="XMLID_3310_" d="M 569.253 226.353 C 572.606 227.996 573.966 230.496 572.477 236.07 C 571.14 241.074 566.01 249.607 561.974 253.784 C 561.974 253.784 555.069 250.513 551.393 246.26 C 555.034 240.692 556.783 237.417 560.201 232.708 C 563.62 227.999 567.206 225.79 569.253 226.353 Z" fill="rgb(39, 222, 191)" transform="">
                            </path>
                        </g>
                        <g id="XMLID_3330_" opacity="0.1" transform="">
                            <path id="XMLID_3332_" d="M 569.253 226.353 C 572.606 227.996 573.966 230.496 572.477 236.07 C 571.14 241.074 566.01 249.607 561.974 253.784 C 561.974 253.784 555.069 250.513 551.393 246.26 C 555.034 240.692 556.783 237.417 560.201 232.708 C 563.62 227.999 567.206 225.79 569.253 226.353 Z" transform="">
                            </path>
                        </g>
                    </g>
                </g>
            </g>
        </g>
    </g>
    <g id="Character_1" transform="">
        <g id="Character_9_" transform="">
            <path id="XMLID_3520_" d="M 259.364 221.59 C 263.073 221.577 267.002 220.523 270.164 225.314 C 273.326 230.105 282.575 251.393 282.575 251.393 C 282.575 251.393 275.051 255.402 274.86 255.114 C 274.668 254.826 261.986 233.65 261.986 233.65 L 259.364 221.59 Z" fill="rgb(255, 168, 167)" transform="">
            </path>
            <g id="XMLID_3587_" transform="">
                <g id="XMLID_3588_" transform="">
                    <g id="XMLID_3589_" transform="">
                        <g id="XMLID_3619_" transform="">
                            <path id="XMLID_3620_" d="M 255.243 217.147 L 255.243 217.147 C 246.732 217.147 239.833 210.248 239.833 201.737 L 239.833 200.163 C 239.833 192.95 245.68 187.103 252.893 187.103 L 257.592 187.103 C 264.805 187.103 270.652 192.95 270.652 200.163 L 270.652 201.737 C 270.653 210.248 263.754 217.147 255.243 217.147 Z" fill="rgb(39, 222, 191)" transform="">
                            </path>
                        </g>
                        <g id="XMLID_1_" opacity="0.2" transform="">
                            <path id="XMLID_2_" d="M 255.243 217.147 L 255.243 217.147 C 246.732 217.147 239.833 210.248 239.833 201.737 L 239.833 200.163 C 239.833 192.95 245.68 187.103 252.893 187.103 L 257.592 187.103 C 264.805 187.103 270.652 192.95 270.652 200.163 L 270.652 201.737 C 270.653 210.248 263.754 217.147 255.243 217.147 Z" transform="">
                            </path>
                        </g>
                        <path id="XMLID_3618_" d="M 233.243 218.751 L 233.243 218.751 C 237.204 218.751 240.414 215.54 240.414 211.58 L 240.414 197.322 L 240.414 197.322 C 236.453 197.322 233.243 200.533 233.243 204.493 L 233.243 218.751 Z" fill="rgb(39, 222, 191)" transform="">
                        </path>
                        <path id="XMLID_3_" opacity="0.2" d="M 233.243 218.751 L 233.243 218.751 C 237.204 218.751 240.414 215.54 240.414 211.58 L 240.414 197.322 L 240.414 197.322 C 236.453 197.322 233.243 200.533 233.243 204.493 L 233.243 218.751 Z" transform="">
                        </path>
                        <g id="XMLID_3616_" transform="">
                            <path id="XMLID_3617_" d="M 271.114 373.344 C 272.947 375.351 274.969 376.959 277.139 378.584 C 277.463 378.827 277.8 379.084 277.976 379.449 C 278.26 380.039 278.702 381.502 276.007 382.443 C 273.375 383.362 270.093 383.147 267.694 381.645 C 265.481 380.26 265.382 377.379 263.295 375.736 C 261.748 374.518 259.816 374.206 258.566 372.616 C 257.696 371.509 257.922 370.035 258.376 368.21 C 258.872 366.219 259.1 364.712 259.759 364.864 L 259.651 365.78 C 260.473 367.093 264.736 367.48 266.633 366.574 C 266.634 366.576 269.918 372.035 271.114 373.344 Z" fill="rgb(38, 50, 56)" transform="">
                            </path>
                        </g>
                        <g id="XMLID_3614_" transform="">
                            <path id="XMLID_3615_" d="M 272.983 375.207 C 272.983 375.205 272.983 375.195 272.983 375.193 C 272.343 374.606 271.715 374.001 271.114 373.343 C 270.343 372.499 268.704 369.933 267.635 368.215 C 266.985 367.17 266.183 365.853 266.148 364.468 C 266.104 362.707 266.274 359.573 266.274 359.573 L 259.961 359.157 L 259.652 365.78 L 259.652 365.78 C 259.489 367.281 260.729 368.614 262.927 370.508 C 265.125 372.402 267.916 376.819 269.906 377.93 C 271.896 379.041 273.318 379 274.167 378.432 C 275.04 377.846 275.126 377.397 272.983 375.207 Z" fill="rgb(255, 168, 167)" transform="">
                            </path>
                        </g>
                        <g id="XMLID_3612_" transform="">
                            <path id="XMLID_3613_" d="M 250.09 379.656 C 251.923 381.663 253.945 383.271 256.115 384.896 C 256.439 385.139 256.776 385.396 256.952 385.762 C 257.236 386.352 257.678 387.815 254.983 388.756 C 252.351 389.674 249.069 389.459 246.67 387.958 C 244.457 386.573 244.358 383.692 242.271 382.049 C 240.724 380.831 238.792 380.519 237.542 378.929 C 236.672 377.822 236.898 376.348 237.352 374.523 C 237.847 372.532 238.076 371.025 238.735 371.177 L 238.627 372.093 C 239.449 373.406 243.712 373.793 245.609 372.887 C 245.61 372.887 248.894 378.346 250.09 379.656 Z" fill="rgb(38, 50, 56)" transform="">
                            </path>
                        </g>
                        <g id="XMLID_3610_" transform="">
                            <path id="XMLID_3611_" d="M 251.959 381.518 C 251.959 381.516 251.959 381.506 251.959 381.504 C 251.319 380.917 250.691 380.312 250.09 379.654 C 249.319 378.81 247.68 376.244 246.611 374.526 C 245.961 373.481 245.234 372.096 245.132 370.714 C 245.018 369.167 245.098 365.951 245.098 365.951 L 238.785 365.985 L 238.627 372.092 L 238.627 372.092 C 238.464 373.593 239.704 374.926 241.902 376.82 C 244.099 378.714 246.891 383.131 248.881 384.242 C 250.871 385.353 252.293 385.312 253.142 384.744 C 254.016 384.158 254.102 383.709 251.959 381.518 Z" fill="rgb(255, 168, 167)" transform="">
                            </path>
                        </g>
                        <g id="XMLID_3608_" transform="">
                            <path id="XMLID_3609_" d="M 238.708 263.67 C 233.205 275.69 239.464 321.265 239.464 321.265 C 239.298 323.216 237.578 326.245 237.377 332.204 C 237.119 339.851 238.475 368.094 238.475 368.094 C 238.475 368.094 241.789 370.101 245.676 368.237 C 245.676 368.237 252.193 329.901 253.465 319.815 C 254.575 311.013 256.706 290.325 256.706 290.325 L 261.088 319.767 C 261.088 319.767 258.836 324.682 258.72 329.119 C 258.563 335.077 259.442 362.727 259.442 362.727 C 259.442 362.727 262.109 363.663 266.758 362.978 C 266.758 362.978 273.388 325.56 274.011 318.421 C 274.383 314.156 271.196 261.868 271.196 261.868 L 238.708 263.67 Z" fill="rgb(55, 71, 79)" transform="">
                            </path>
                        </g>
                        <g id="XMLID_3606_" transform="">
                            <path id="XMLID_3607_" d="M 256.707 290.326 L 258.494 280.497 C 258.494 280.497 266.053 278.931 269.481 275.708 C 269.481 275.708 265.885 280.182 260.543 281.647 L 258.536 290.242 L 260.519 315.93 L 256.707 290.326 Z" fill="rgb(38, 50, 56)" transform="">
                            </path>
                        </g>
                        <g id="XMLID_3604_" transform="">
                            <path id="XMLID_3605_" d="M 249.449 221.87 L 249.449 221.87 C 244.621 222.537 242.032 223.603 240.473 228.141 C 239.453 231.11 239.729 235.477 240.755 238.444 L 244.975 250.777 C 244.975 250.777 240.812 257.262 238.707 263.67 C 251.045 270.557 267.486 266.894 271.196 261.869 C 271.353 260.803 270.353 255.65 270.652 250.183 C 270.971 244.354 271.907 237.659 270.991 234.056 C 269.289 227.367 264.62 223 259.363 221.59 L 249.449 221.87 Z" fill="rgb(245, 245, 245)" transform="">
                            </path>
                        </g>
                        <path id="XMLID_3472_" d="M 246.57 234.812 C 246.36 237.984 245.402 246.702 245.402 246.702 L 249.445 253.094 L 244.975 250.777 L 241.01 239.19 L 246.57 234.812 Z" fill="rgb(230, 230, 230)" transform="">
                        </path>
                        <g id="XMLID_3602_" transform="">
                            <path id="XMLID_3603_" d="M 265.466 193.489 C 267.134 194.475 269.195 198.67 268.992 207.463 C 268.82 214.916 266.404 216.757 265.191 217.288 C 263.978 217.819 261.639 217.496 259.364 217.117 L 259.364 221.59 C 259.364 221.59 262.507 225.241 262.309 227.292 C 262.111 229.343 257.77 229.828 254.829 227.824 C 251.888 225.82 250.002 222.77 250.002 222.77 L 250.002 211.958 C 250.002 211.958 248.467 214.008 245.955 212.341 C 243.443 210.673 243.348 206.545 244.808 205.063 C 246.268 203.581 249.415 204.05 250.002 206.098 C 250.002 206.098 253.629 206.23 258.459 203.577 C 263.289 200.923 265.145 196.379 265.466 193.489 Z" fill="rgb(255, 168, 167)" transform="">
                            </path>
                        </g>
                        <g id="XMLID_3600_" transform="">
                            <path id="XMLID_3601_" d="M 260.67 205.591 C 260.697 206.128 260.3 206.583 259.783 206.608 C 259.266 206.632 258.825 206.217 258.798 205.68 C 258.771 205.143 259.168 204.688 259.685 204.663 C 260.202 204.638 260.643 205.054 260.67 205.591 Z" fill="rgb(38, 50, 56)" transform="">
                            </path>
                        </g>
                        <g id="XMLID_3598_" transform="">
                            <path id="XMLID_3599_" d="M 260.921 211.909 L 263.098 212.603 C 262.917 213.226 262.283 213.576 261.682 213.384 C 261.081 213.192 260.74 212.532 260.921 211.909 Z" fill="rgb(242, 143, 143)" transform="">
                            </path>
                        </g>
                        <g id="XMLID_3596_" transform="">
                            <path id="XMLID_3597_" d="M 268.355 202.713 L 266.459 201.399 C 266.805 200.857 267.51 200.713 268.034 201.076 C 268.557 201.438 268.701 202.172 268.355 202.713 Z" fill="rgb(39, 222, 191)" transform="">
                            </path>
                        </g>
                        <g id="XMLID_4_" opacity="0.2" transform="">
                            <path id="XMLID_5_" d="M 268.355 202.713 L 266.459 201.399 C 266.805 200.857 267.51 200.713 268.034 201.076 C 268.557 201.438 268.701 202.172 268.355 202.713 Z" transform="">
                            </path>
                        </g>
                        <g id="XMLID_3594_" transform="">
                            <path id="XMLID_3595_" d="M 267.918 204.913 C 267.945 205.45 267.548 205.905 267.031 205.93 C 266.514 205.955 266.073 205.539 266.046 205.002 C 266.019 204.465 266.416 204.01 266.933 203.985 C 267.45 203.961 267.891 204.376 267.918 204.913 Z" fill="rgb(38, 50, 56)" transform="">
                            </path>
                        </g>
                        <g id="XMLID_3592_" transform="">
                            <polygon id="XMLID_3593_" points="263.4964599609375,204.37745666503906 263.64544677734375,210.01846313476562 266.6154479980469,209.09945678710938" fill="rgb(242, 143, 143)" transform="">
                            </polygon>
                        </g>
                        <g id="XMLID_3590_" transform="">
                            <path id="XMLID_3591_" d="M 259.364 217.117 C 256.967 216.803 252.036 215.386 251.267 213.437 C 251.267 213.437 251.523 214.662 252.996 215.925 C 254.469 217.187 259.364 218.61 259.364 218.61 L 259.364 217.117 Z" fill="rgb(242, 143, 143)" transform="">
                            </path>
                        </g>
                    </g>
                </g>
            </g>
            <g id="XMLID_3346_" transform="">
                <polygon id="XMLID_3518_" points="298.845458984375,240.2694549560547 273.2874450683594,247.00144958496094 265.7434387207031,278.7194519042969 290.0424499511719,271.66143798828125" fill="rgb(39, 222, 191)" transform="">
                </polygon>
                <path id="XMLID_3500_" opacity="0.1" d="M 287.702 261.257 C 287.939 261.905 289.338 263.703 292.313 263.561 L 292.681 262.249 L 287.702 261.257 Z" transform="">
                </path>
                <path id="XMLID_3496_" opacity="0.1" d="M 281.991 262.249 C 281.879 263.094 280.14 264.66 277.203 265.639 C 273.86 266.753 268.73 266.164 268.73 266.164 L 269.19 264.586 L 281.991 262.249 Z" transform="">
                </path>
                <path id="XMLID_3495_" opacity="0.1" d="M 291.363 244.862 C 291.363 244.862 291.457 244.425 291.574 243.887 C 291.69 243.349 290.191 243.326 288.224 243.835 L 284.459 244.812 C 282.492 245.322 280.804 246.172 280.687 246.71 L 280.476 247.685 L 291.363 244.862 Z" transform="">
                </path>
                <g id="XMLID_3490_" transform="">
                    <path id="XMLID_3494_" d="M 293.134 241.185 C 293.208 240.849 292.6 240.76 291.777 240.988 L 290.286 241.4 C 290.286 241.4 290.731 239.292 287.422 240.029 C 284.113 240.766 283.39 243.16 283.39 243.16 C 283.39 243.16 282.677 243.362 281.798 243.612 C 280.919 243.862 280.122 244.336 280.018 244.671 L 279.83 245.277 L 292.995 241.811 C 292.994 241.81 293.06 241.521 293.134 241.185 Z" fill="rgb(55, 71, 79)" transform="">
                    </path>
                    <path id="XMLID_3492_" d="M 291.321 242.238 C 290.115 242.529 289.613 242.689 289.433 243.519 C 289.227 244.467 289.143 245.162 289.143 245.162 L 283.316 246.702 C 283.316 246.702 283.597 245.502 283.687 245.034 C 283.777 244.566 283.579 244.285 282.651 244.53 L 282.573 244.159 L 291.703 241.834 L 291.321 242.238 Z" fill="rgb(55, 71, 79)" transform="">
                    </path>
                    <path id="XMLID_3491_" d="M 291.522 244.954 C 291.522 244.954 291.616 244.517 291.733 243.979 C 291.849 243.441 290.35 243.417 288.383 243.928 L 284.618 244.905 C 282.651 245.415 280.963 246.265 280.846 246.803 L 280.635 247.778 L 291.522 244.954 Z" fill="rgb(55, 71, 79)" transform="">
                    </path>
                </g>
            </g>
            <path id="XMLID_3343_" d="M 237.351 260.21 L 242.016 252.432 C 242.016 252.432 262.484 258.429 264.517 258.588 C 266.55 258.748 268.808 257.312 269.584 255.316 C 270.359 253.32 271.725 253.569 271.725 253.569 C 271.725 253.569 271.123 256.099 270.931 256.906 C 270.739 257.714 275.612 258.377 278.314 257.462 C 281.017 256.547 284.929 257.875 282.506 261.556 C 280.082 265.237 275.37 265.661 272.096 265.663 C 271.191 265.664 269.583 265.595 268.002 265.39 C 266.943 265.252 265.889 265.145 264.824 265.069 C 258.123 264.592 240.397 261.166 237.351 260.21 Z" fill="rgb(255, 168, 167)" transform="">
            </path>
            <path id="XMLID_3342_" d="M 296.245 249.542 C 296.245 249.542 295.329 252.807 295.111 253.586 C 294.892 254.365 291.921 255.781 290.042 256.297 C 288.163 256.813 286.109 257.425 286.998 260.052 C 287.818 262.474 290.909 263.027 292.483 262.959 C 294.057 262.891 296.212 261.386 297.06 258.961 C 298.143 255.868 297.559 252.564 297.989 250.757 C 298.419 248.951 297.186 248.465 296.245 249.542 Z" fill="rgb(255, 168, 167)" transform="">
            </path>
            <path id="XMLID_3519_" d="M 242.016 252.432 L 246.11 236.876 C 246.11 236.876 248.464 228.449 246.11 222.53 C 246.11 222.53 244.165 221.831 241.197 224.287 C 238.229 226.743 236.592 232.27 235.568 236.773 C 234.545 241.276 232.415 256.116 232.661 257.651 C 232.907 259.186 235.673 260.146 243.854 261.691 L 242.016 252.432 Z" fill="rgb(255, 168, 167)" transform="">
            </path>
        </g>
    </g>
    <g id="XMLID_3240_" transform="">
        <path id="XMLID_3526_" d="M 403.365 295.047 C 388.922 295.047 377.215 301.794 377.215 310.117 L 377.215 346.442 C 377.215 354.765 388.923 361.512 403.365 361.512 C 417.807 361.512 429.515 354.765 429.515 346.442 L 429.515 310.117 C 429.515 301.794 417.807 295.047 403.365 295.047 Z" fill="rgb(235, 235, 235)" transform="">
        </path>
        <path id="XMLID_3308_" d="M 403.365 295.047 C 388.922 295.047 377.215 301.794 377.215 310.117 L 377.215 346.442 C 377.215 354.765 388.923 361.512 403.365 361.512 C 417.807 361.512 429.515 354.765 429.515 346.442 L 429.515 310.117 C 429.515 301.794 417.807 295.047 403.365 295.047 Z" fill="rgb(39, 222, 191)" transform="">
        </path>
        <path id="XMLID_3339_" opacity="0.1" d="M 377.214 310.117 L 377.214 346.442 C 377.214 353.183 384.897 358.89 395.492 360.815 L 395.492 325.299 L 395.492 295.743 C 384.897 297.669 377.214 303.375 377.214 310.117 Z" transform="">
        </path>
        <path id="XMLID_3527_" d="M 433.501 313.66 C 433.692 313.353 505.955 197.118 505.955 197.118 C 505.955 197.118 469.433 220.684 403.382 220.684 C 390.41 220.684 378.563 219.768 367.921 218.305 C 324.391 212.325 300.809 197.118 300.809 197.118 C 300.809 197.118 373.027 313.338 373.212 313.635 C 373.215 313.641 373.223 313.655 373.225 313.66 L 373.227 313.66 C 377.669 320.777 389.483 325.868 403.364 325.868 C 417.245 325.868 429.059 320.777 433.501 313.66 L 433.501 313.66 L 433.501 313.66 Z" fill="rgb(235, 235, 235)" transform="">
        </path>
        <path id="XMLID_3337_" d="M 350.891 227.167 L 339.94 212.7 C 314.39 205.865 300.81 197.118 300.81 197.118 C 300.81 197.118 373.028 313.338 373.213 313.635 C 373.216 313.641 373.224 313.655 373.226 313.66 L 373.228 313.66 C 376.8 319.384 385.144 323.791 395.492 325.299 L 350.891 227.167 Z" fill="rgb(224, 224, 224)" transform="">
        </path>
        <path id="XMLID_3304_" d="M 494.596 106.442 C 472.517 93.6955 444.428 86.5355 415.578 84.9695 L 415.564 84.9615 C 378.609 82.9665 340.457 90.1185 312.168 106.453 C 261.796 135.542 261.803 182.692 312.17 211.771 C 323.697 218.426 336.849 223.551 350.892 227.166 C 385.489 236.041 425.465 235.697 459.642 226.139 C 464.461 224.801 469.147 223.274 473.701 221.56 C 475.594 220.853 477.476 220.102 479.315 219.326 L 479.323 219.312 C 481.946 218.209 484.507 217.052 487.001 215.819 C 489.599 214.534 492.135 213.196 494.59 211.773 C 544.962 182.686 544.976 135.529 494.596 106.442 Z" fill="rgb(39, 222, 191)" transform="">
        </path>
        <path id="XMLID_3272_" opacity="0.1" d="M 415.564 84.9615 C 378.609 82.9665 340.457 90.1185 312.168 106.453 C 261.796 135.542 261.803 182.692 312.17 211.771 C 323.697 218.426 336.849 223.551 350.892 227.166 L 350.9 227.152 C 346.089 220.439 342.914 204.463 352.17 203.477 C 339.628 200.189 327.976 195.615 317.855 189.772 C 303.377 181.413 293.562 171.44 289.44 160.93 C 285.931 151.962 286.749 142.894 291.899 134.006 C 296.876 125.353 305.867 117.143 317.827 110.219 C 341.887 96.3245 374.565 89.6505 406.897 90.2015 C 406.896 90.2035 406.166 86.1625 415.564 84.9615 Z" transform="">
        </path>
        <path id="XMLID_3271_" d="M 488.666 110.22 C 466.42 97.3765 436.798 90.6875 406.896 90.2035 C 374.564 89.6525 341.886 96.3265 317.826 110.221 C 305.866 117.144 296.875 125.355 291.898 134.008 C 286.748 142.896 285.93 151.964 289.439 160.932 C 293.561 171.442 303.376 181.415 317.854 189.774 C 327.975 195.617 339.626 200.191 352.169 203.479 C 356.905 204.728 361.767 205.791 366.72 206.664 C 375.343 208.19 384.278 209.173 393.243 209.56 C 395.089 209.642 396.929 209.702 398.763 209.74 C 401.819 209.816 404.894 209.827 407.944 209.751 C 418.399 209.55 428.807 208.562 438.85 206.824 C 438.952 206.808 439.084 206.773 439.199 206.766 C 445.888 205.597 452.394 204.101 458.661 202.281 C 463.169 200.967 467.536 199.479 471.754 197.831 C 473.524 197.145 475.26 196.421 476.975 195.667 C 479.025 194.753 481.041 193.801 483.023 192.811 C 484.939 191.839 486.808 190.82 488.635 189.777 C 500.653 182.85 509.602 174.616 514.607 165.979 C 525.668 146.822 515.951 125.973 488.666 110.22 Z" fill="rgb(245, 245, 245)" transform="">
        </path>
        <path id="XMLID_3576_" d="M 403.365 172.378 C 373.078 172.378 347.233 183.303 337.007 198.684 C 341.879 200.5 346.941 202.108 352.169 203.478 C 356.905 204.727 361.767 205.79 366.72 206.663 C 375.342 208.189 384.278 209.172 393.243 209.559 C 395.089 209.641 396.929 209.701 398.763 209.739 C 401.819 209.815 404.893 209.826 407.945 209.75 C 418.399 209.549 428.808 208.561 438.85 206.823 C 438.952 206.807 439.084 206.772 439.199 206.765 C 445.888 205.596 452.394 204.1 458.661 202.28 C 462.435 201.18 466.103 199.951 469.675 198.616 C 459.418 183.271 433.606 172.378 403.365 172.378 Z" fill="rgb(235, 235, 235)" transform="">
        </path>
    </g>
    <g mask="url(#mask-3HqQsJjhCXNrVyYVyzsrdm)" transform="" transform-origin="">
        <g transform-origin="center" style="transform-box: fill-box;" transform="">
            <g id="XMLID_3565_" transform-origin="center" transform="matrix(1,0,0,1,-280.70098876953125,-168.83999633789062)" style="transform-box: fill-box;">
                <circle id="XMLID_3570_" cx="283.93" cy="138.759" r="12.328" fill="rgb(39, 222, 191)" transform="">
                </circle>
                <path id="XMLID_3569_" opacity="0.1" d="M 280.492 143.195 C 274.62 138.942 274.139 130.586 278.733 127.58 L 278.733 127.58 C 274.523 129.541 271.603 133.808 271.603 138.759 C 271.603 145.568 277.123 151.087 283.932 151.087 C 290.741 151.087 296.26 145.567 296.26 138.759 C 295.789 144.698 286.364 147.448 280.492 143.195 Z" transform="">
                </path>
                <animateMotion begin="0.9032158064516129" dur="3.00002" fill="freeze" repeatCount="indefinite">
                    <mpath href="#motion-path-wkPsetf6f6Bf7NH2JRjVoK">
                    </mpath>
                </animateMotion>
                <animateTransform attributeName="transform" type="scale" begin="0.9032158064516129" dur="3.00002" keyTimes="0; 1" values="1, 1; 0" fill="freeze" additive="sum" calcMode="spline" keySplines="0 0 1 1" repeatCount="indefinite">
                </animateTransform>
            </g>
            <g id="XMLID_3531_" transform-origin="center" transform="matrix(1,0,0,1,-323.01202392578125,-112.93599700927734)" style="transform-box: fill-box;">
                <circle id="XMLID_3546_" cx="326.242" cy="82.856" r="20.685" fill="rgb(69, 90, 100)" transform="">
                </circle>
                <path id="XMLID_3532_" d="M 320.472 90.299 C 310.619 83.164 309.813 69.143 317.52 64.099 L 317.52 64.099 C 310.456 67.39 305.557 74.548 305.557 82.855 C 305.557 94.279 314.818 103.54 326.242 103.54 C 337.666 103.54 346.927 94.279 346.927 82.855 C 346.139 92.822 330.325 97.434 320.472 90.299 Z" fill="rgb(55, 71, 79)" transform="">
                </path>
                <animateMotion begin="0.45160290322580643" dur="3.00002" fill="freeze" repeatCount="indefinite">
                    <mpath href="#motion-path-v27MA8AHEiqJSULRAzKmjJ">
                    </mpath>
                </animateMotion>
                <animateTransform attributeName="transform" type="scale" begin="0.45160290322580643" dur="3.00002" keyTimes="0; 1" values="1, 1; 0" fill="freeze" additive="sum" calcMode="spline" keySplines="0 0 1 1" repeatCount="indefinite">
                </animateTransform>
            </g>
            <g id="XMLID_3474_" transform-origin="center" transform="matrix(1,0,0,1,-184.9007110595703,-61.858680725097656)" style="transform-box: fill-box;">
                <ellipse id="XMLID_3476_" transform="matrix(0.7071002125740051,-0.7071002125740051,0.7071002125740051,0.7071002125740051,13.647219657897939,118.7831004858017)" cx="184.902" cy="61.858" rx="16.22" ry="16.22" fill="rgb(69, 90, 100)" transform-origin="">
                </ellipse>
                <path id="XMLID_3475_" d="M 183.608 37.614 C 175.882 32.019 175.25 21.025 181.293 17.07 L 181.293 17.07 C 175.754 19.65 171.912 25.264 171.912 31.777 C 171.912 40.735 179.174 47.997 188.132 47.997 C 197.09 47.997 204.352 40.735 204.352 31.777 C 203.734 39.592 191.334 43.209 183.608 37.614 Z" fill="rgb(55, 71, 79)" transform="">
                </path>
                <animateMotion begin="2.5806351612903224" dur="3.0000199999999997" fill="freeze" repeatCount="indefinite">
                    <mpath href="#motion-path-tvndjY1ZTJLq1m7spWMgtP">
                    </mpath>
                </animateMotion>
                <animateTransform attributeName="transform" type="scale" begin="2.5806351612903224" dur="3.0000199999999997" keyTimes="0; 1" values="1, 1; 0" fill="freeze" additive="sum" calcMode="spline" keySplines="0 0 1 1" repeatCount="indefinite">
                </animateTransform>
            </g>
            <g id="XMLID_3378_" transform-origin="center" transform="matrix(1,0,0,1,-188.11822509765625,-139.45359802246094)" style="transform-box: fill-box;">
                <g id="XMLID_3631_" transform="">
                    <path id="XMLID_3632_" d="M 166.718 109.31 L 175.279 90.697 C 176.013 89.101 178.026 87.676 179.774 87.514 L 198.625 84.951 C 200.374 84.789 202.614 85.819 203.629 87.253 L 215.469 103.974 C 216.484 105.407 216.712 107.863 215.978 109.457 L 207.417 128.071 C 206.683 129.666 204.67 131.091 202.922 131.254 L 184.071 133.817 C 182.322 133.979 180.082 132.949 179.067 131.515 L 167.227 114.794 C 166.212 113.362 165.985 110.906 166.718 109.31 Z" fill="rgb(39, 222, 191)" transform="">
                    </path>
                </g>
                <path id="XMLID_3630_" opacity="0.1" d="M 179.067 131.516 C 180.082 132.95 182.323 133.98 184.071 133.818 L 202.922 131.255 C 204.502 131.108 206.289 129.928 207.161 128.525 C 206.386 129.674 205.158 129.647 204.251 128.366 L 192.411 111.645 C 191.903 110.928 191.593 109.956 191.501 108.965 L 166.317 112.115 C 166.409 113.107 166.72 114.079 167.227 114.796 L 179.067 131.516 Z" transform="">
                </path>
                <g id="XMLID_3446_" transform="">
                    <g id="XMLID_3628_" transform="">
                        <path id="XMLID_3629_" opacity="0.4" d="M 203.362 86.873 C 202.385 85.836 201.158 86.077 200.498 87.524 L 191.934 106.141 C 191.473 107.139 191.394 108.472 191.645 109.681 C 191.596 109.441 191.554 109.195 191.532 108.947 L 166.351 112.094 C 166.256 111.104 166.384 110.088 166.753 109.288 L 175.31 90.677 C 176.048 89.075 178.057 87.653 179.806 87.494 L 198.66 84.928 C 200.251 84.781 202.259 85.627 203.362 86.873 Z" fill="rgb(255, 255, 255)" transform="">
                        </path>
                    </g>
                </g>
                <animateMotion begin="1.858054220797631" dur="3.0000200000000006" fill="freeze" repeatCount="indefinite">
                    <mpath href="#motion-path-34QTaaFp2trmY6U9JpeRfb">
                    </mpath>
                </animateMotion>
                <animateTransform attributeName="transform" type="scale" begin="1.858054220797631" dur="3.0000200000000006" keyTimes="0; 1" values="1, 1; 0" fill="freeze" additive="sum" calcMode="spline" keySplines="0 0 1 1" repeatCount="indefinite">
                </animateTransform>
            </g>
            <g id="XMLID_3356_" transform-origin="center" transform="matrix(1,0,0,1,-292.288330078125,-51.094383239746094)" style="transform-box: fill-box;">
                <g id="XMLID_3371_" transform="">
                    <path id="XMLID_3372_" d="M 284.506 3.252 L 301.746 1.06199 C 303.224 0.873993 305.153 1.68399 306.054 2.87 L 316.358 15.289 C 317.259 16.475 317.523 18.55 316.947 19.924 L 310.224 35.95 C 309.648 37.324 307.982 38.59 306.505 38.777 L 289.265 40.967 C 287.787 41.154 285.858 40.345 284.957 39.159 L 274.652 26.74 C 273.751 25.554 273.487 23.479 274.063 22.105 L 280.787 6.079 C 281.363 4.706 283.028 3.44 284.506 3.252 Z" fill="rgb(39, 222, 191)" transform="">
                    </path>
                </g>
                <path id="XMLID_3370_" opacity="0.1" d="M 274.063 22.105 C 273.487 23.479 273.75 25.554 274.652 26.74 L 284.956 39.159 C 285.771 40.231 287.422 40.987 288.823 40.986 C 287.648 40.944 287.116 40.048 287.632 38.82 L 294.356 22.794 C 294.644 22.107 295.205 21.447 295.878 20.936 L 282.309 4.222 C 281.636 4.733 281.076 5.393 280.787 6.08 L 274.063 22.105 Z" transform="">
                </path>
                <g id="XMLID_3357_" transform="">
                    <g id="XMLID_3368_" transform="">
                        <path id="XMLID_3369_" opacity="0.4" d="M 317.1 19.561 C 317.408 18.393 316.684 17.617 315.346 17.792 L 298.102 19.981 C 297.177 20.097 296.181 20.638 295.423 21.362 C 295.574 21.219 295.732 21.078 295.901 20.951 L 282.336 4.238 C 283.006 3.725 283.795 3.362 284.537 3.268 L 301.774 1.07699 C 303.258 0.888993 305.184 1.69699 306.083 2.885 L 316.39 15.305 C 317.21 16.383 317.502 18.209 317.1 19.561 Z" fill="rgb(255, 255, 255)" transform="">
                        </path>
                    </g>
                </g>
                <animateMotion begin="3.967731935483871" dur="3.00002" fill="freeze" repeatCount="indefinite">
                    <mpath href="#motion-path-7vBJipoYnADrjDYrdep2Ee">
                    </mpath>
                </animateMotion>
                <animateTransform attributeName="transform" type="scale" begin="3.967731935483871" dur="3.00002" keyTimes="0; 1" values="1, 1; 0" fill="freeze" additive="sum" calcMode="spline" keySplines="0 0 1 1" repeatCount="indefinite">
                </animateTransform>
            </g>
            <g id="XMLID_3350_" transform-origin="center" transform="matrix(1,0,0,1,-244.9871368408203,-113.82148742675781)" style="transform-box: fill-box;">
                <g id="XMLID_3354_" transform="">
                    <path id="XMLID_3355_" d="M 243.742 73.483 L 253.048 73.644 C 253.846 73.658 254.806 74.235 255.193 74.932 L 259.702 82.305 C 260.089 83.003 260.069 84.123 259.659 84.807 L 254.867 92.786 C 254.456 93.47 253.477 94.013 252.679 94 L 243.373 93.839 C 242.575 93.825 241.615 93.248 241.228 92.55 L 236.719 85.177 C 236.332 84.479 236.351 83.359 236.762 82.675 L 241.555 74.696 C 241.965 74.012 242.944 73.469 243.742 73.483 Z" fill="rgb(55, 71, 79)" transform="">
                    </path>
                </g>
                <g id="XMLID_3352_" transform="">
                    <path id="XMLID_3353_" opacity="0.4" d="M 259.768 84.626 C 260.021 84.03 259.696 83.564 258.974 83.554 L 249.666 83.392 C 249.167 83.383 248.598 83.593 248.14 83.918 C 248.231 83.854 248.326 83.791 248.425 83.737 L 242.516 73.838 C 242.91 73.618 243.356 73.485 243.757 73.493 L 253.062 73.653 C 253.863 73.667 254.822 74.243 255.207 74.942 L 259.718 82.316 C 260.07 82.95 260.085 83.94 259.768 84.626 Z" fill="rgb(69, 90, 100)" transform="">
                    </path>
                </g>
                <path id="XMLID_3351_" d="M 236.761 82.675 C 236.35 83.359 236.331 84.479 236.718 85.177 L 241.227 92.55 C 241.577 93.181 242.394 93.708 243.137 93.815 C 242.517 93.703 242.304 93.187 242.672 92.575 L 247.465 84.596 C 247.67 84.254 248.018 83.947 248.414 83.728 L 242.503 73.828 C 242.107 74.047 241.76 74.354 241.554 74.696 L 236.761 82.675 Z" fill="rgb(38, 50, 56)" transform="">
                </path>
                <g id="XMLID_3375_" transform="">
                </g>
                <animateMotion begin="3.251603493888609" dur="3.00002" fill="freeze" repeatCount="indefinite">
                    <mpath href="#motion-path-t5WpJrJmXgr2HeXw42TEry">
                    </mpath>
                </animateMotion>
                <animateTransform attributeName="transform" type="scale" begin="3.251603493888609" dur="3.00002" keyTimes="0; 1" values="1, 1; 0" fill="freeze" additive="sum" calcMode="spline" keySplines="0 0 1 1" repeatCount="indefinite">
                </animateTransform>
            </g>
            <g id="XMLID_3216_" transform-origin="center" transform="matrix(1,0,0,1,-239.60128784179688,-392.3907470703125)" style="transform-box: fill-box;">
                <ellipse id="XMLID_3338_" transform="matrix(0.16019999980926516,-0.9871003031730652,0.9871003031730652,0.16019999980926516,-182.8760805130005,535.9516795873642)" cx="239.592" cy="392.387" rx="13.646" ry="13.646" fill="rgb(39, 222, 191)" transform-origin="">
                </ellipse>
                <path id="XMLID_3349_" opacity="0.1" d="M 239.016 367.216 C 232.516 362.509 231.984 353.259 237.068 349.932 L 237.068 349.932 C 232.408 352.103 229.176 356.826 229.176 362.306 C 229.176 369.842 235.286 375.952 242.822 375.952 C 250.358 375.952 256.468 369.842 256.468 362.306 C 255.948 368.88 245.516 371.923 239.016 367.216 Z" transform="">
                </path>
                <animateMotion begin="1.858054220797631" dur="3.0000200000000006" fill="freeze" repeatCount="indefinite">
                    <mpath href="#motion-path-bV7Y6Gx2qBzwTAgRAqfaL1">
                    </mpath>
                </animateMotion>
                <animateTransform attributeName="transform" type="scale" begin="1.858054220797631" dur="3.0000200000000006" keyTimes="0; 1" values="1, 1; 0" fill="freeze" additive="sum" calcMode="spline" keySplines="0 0 1 1" repeatCount="indefinite">
                </animateTransform>
            </g>
            <g id="XMLID_3437_" transform-origin="center" transform="matrix(1,0,0,1,-266.01580810546875,-372.947021484375)" style="transform-box: fill-box;">
                <g id="XMLID_3650_" transform="">
                    <path id="XMLID_3651_" d="M 265.846 335.072 L 272.916 335.194 C 273.522 335.204 274.252 335.643 274.546 336.173 L 277.972 341.775 C 278.266 342.305 278.251 343.156 277.939 343.676 L 274.298 349.738 C 273.986 350.258 273.241 350.67 272.635 350.66 L 265.565 350.538 C 264.959 350.527 264.229 350.089 263.935 349.559 L 260.509 343.957 C 260.215 343.427 260.23 342.576 260.542 342.056 L 264.183 335.994 C 264.495 335.474 265.24 335.062 265.846 335.072 Z" fill="rgb(55, 71, 79)" transform="">
                    </path>
                </g>
                <g id="XMLID_3647_" transform="">
                    <path id="XMLID_3648_" opacity="0.4" d="M 278.022 343.538 C 278.214 343.085 277.968 342.731 277.419 342.723 L 270.347 342.6 C 269.968 342.593 269.535 342.753 269.188 343 C 269.257 342.951 269.329 342.904 269.405 342.862 L 264.916 335.341 C 265.216 335.174 265.554 335.073 265.859 335.079 L 272.928 335.2 C 273.537 335.211 274.265 335.649 274.558 336.179 L 277.985 341.781 C 278.251 342.265 278.262 343.017 278.022 343.538 Z" fill="rgb(69, 90, 100)" transform="">
                    </path>
                </g>
                <path id="XMLID_3649_" d="M 260.542 342.056 C 260.23 342.576 260.215 343.427 260.509 343.957 L 263.935 349.559 C 264.201 350.038 264.821 350.439 265.386 350.52 C 264.915 350.435 264.753 350.043 265.032 349.578 L 268.673 343.516 C 268.829 343.256 269.093 343.023 269.394 342.856 L 264.903 335.335 C 264.602 335.502 264.338 335.735 264.182 335.995 L 260.542 342.056 Z" fill="rgb(38, 50, 56)" transform="">
                </path>
                <g id="XMLID_3646_" transform="">
                </g>
                <animateMotion begin="0.967731935483871" dur="3.00002" fill="freeze" repeatCount="indefinite">
                    <mpath href="#motion-path-f1BXN5me4cE6jJSo3Ui5e8">
                    </mpath>
                </animateMotion>
                <animateTransform attributeName="transform" type="scale" begin="0.967731935483871" dur="3.00002" keyTimes="0; 1" values="1, 1; 0" fill="freeze" additive="sum" calcMode="spline" keySplines="0 0 1 1" repeatCount="indefinite">
                </animateTransform>
            </g>
            <path d="M 258.187 -41.2797 C 350.507 76.3413 403.516 422.165 408.335 472.165" stroke-width="1" stroke="none" fill="none" id="motion-path-tvndjY1ZTJLq1m7spWMgtP" transform="">
            </path>
            <path d="M 473.636 -29.814 C 430.432 94.4547 403.323 242.045 395.492 465.539" stroke-width="1" stroke="none" fill="none" id="motion-path-7vBJipoYnADrjDYrdep2Ee" transform="">
            </path>
            <path d="M 596.448 -56.4184 C 429.269 74.5738 403.365 483.609 403.365 483.609" stroke-width="1" stroke="none" fill="none" id="motion-path-v27MA8AHEiqJSULRAzKmjJ" transform="">
            </path>
            <path d="M 520.852 -91.357 C 441.878 113.731 385.251 404.093 395.492 472.165" stroke-width="1" stroke="none" fill="none" id="motion-path-wkPsetf6f6Bf7NH2JRjVoK" transform="">
            </path>
            <path d="M 316.694 -56.4172 C 403.341 191.09 394.295 472.165 394.295 472.165" stroke-width="1" stroke="none" fill="none" id="motion-path-t5WpJrJmXgr2HeXw42TEry" transform="">
            </path>
            <path d="M 348.151 -142.895 C 395.492 172.378 386.353 472.165 386.353 472.165" stroke-width="1" stroke="none" fill="none" id="motion-path-34QTaaFp2trmY6U9JpeRfb" transform="">
            </path>
            <path d="M 451.875 -130.866 C 405.687 142.647 395.492 483.609 395.492 483.609" stroke-width="1" stroke="none" fill="none" id="motion-path-f1BXN5me4cE6jJSo3Ui5e8" transform="">
            </path>
            <path d="M 395.492 -103.684 C 395.492 495.057 395.492 495.057 395.492 495.057" stroke-width="1" stroke="none" fill="none" id="motion-path-bV7Y6Gx2qBzwTAgRAqfaL1" transform="">
            </path>
        </g>
        <mask id="mask-3HqQsJjhCXNrVyYVyzsrdm">
            <path d="M 153.636 4.54543 L 653.636 4.54543 L 653.636 504.545 L 153.636 504.545 Z M 274.339 168.196 C 274.339 187.481 284.848 223.422 379.942 352.632 C 398.123 364.726 413.819 362.875 430.879 349.858 C 447.939 336.841 579.729 163.422 512.704 127.84 C 512.704 127.84 533.714 147.157 512.704 172.378 C 491.694 197.599 410.965 218.097 352.241 202.513 C 293.517 186.929 282.575 159.105 282.575 136.492 Z" fill="rgb(255, 255, 255)" stroke="#000000" stroke-width="0" transform="">
            </path>
        </mask>
    </g>
</svg>
